<?xml version="1.0" encoding="utf-8"?>
<!-- Generator: Adobe Illustrator 27.3.1, SVG Export Plug-In . SVG Version: 6.00 Build 0)  -->
<svg version="1.1" id="Layer_1" xmlns="http://www.w3.org/2000/svg" xmlns:xlink="http://www.w3.org/1999/xlink" x="0px" y="0px"
	 viewBox="0 0 1400 449.1" style="enable-background:new 0 0 1400 449.1;" xml:space="preserve">
<style type="text/css">
	.st0{fill:#592F10;}
	.st1{fill:#4A8E33;}
</style>
<g>
	<g>
		<g>
			<path d="M659.6,263.4c0.7,6.8,4,12.5,10,17c4,3.1,7.8,4.7,11.3,4.7v2.3H625V285c5.3,0,11.3-3.3,18-9.8
				c6.2-6.1,11.3-13.6,15.3-22.4L659.6,263.4z M706.9,134.1l18.3-44.8h2.3l65.9,161.4c4.2,9.8,9.1,18,14.8,24.5
				c5.6,6.6,10.6,9.8,14.8,9.8v2.3h-80.5V285c5.3,0,9.2-3.9,11.7-11.7c1-3.2,1.6-6.6,1.6-10.1c0-5.1-1.1-10.7-3.3-16.7l-8.3-20.3
				l-1-2.3h0.1l-35.5-86.9L706.9,134.1z"/>
			<path d="M908,288c-37.8,0-59.8-16.3-66.1-48.8c-0.9-4.4-1.3-8.6-1.3-12.7c0-5.6,1.1-11.8,3.3-18.5c2.2-6.8,6.3-13.1,12.4-19.1
				c6.2-5.9,13.6-10.2,22.1-13c-5.2-15.6-7.8-29.1-7.8-40.5c0-17.7,6.7-31.3,20-41c5.9-4.3,12.5-7.5,19.8-9.7
				c-7.9,5.6-11.8,14.8-11.8,27.5c0,16.7,5.8,36.8,17.5,60.4c8,16.3,17.8,31.5,29.5,45.7c11.7,14.3,24.4,25.1,38.1,32.4
				c0.9-3.4,1.3-7,1.3-10.7c0-3-0.3-6-0.9-9c-2.6-13.1-7.6-23.5-15-31l27.5-27.2c4.8,10.2,7.3,21.1,7.3,32.7c0,3.8-0.3,9.5-1,17.1
				c-0.7,7.7-5.7,17.7-15,30.1c7.1,3.1,14.2,4.7,21.1,4.7c3,0,6.1-0.3,9.3-0.9c7-1.3,11.6-4,13.6-8.1c1.2-2.6,1.8-5.5,1.8-8.7
				c0-1.7-0.2-3.6-0.6-5.6l2.1-0.4c0.6,3,0.9,5.8,0.9,8.6c0,16.1-10.3,26.1-30.8,30.1c-5.4,1-11.7,1.6-18.8,1.6
				c-5.5,0-11.3-0.9-17.4-2.7c-39.1-13.1-67.8-40.8-86-83.1c-4.8,7-7.1,15.7-7.1,26.1c0,5.2,0.6,11,1.8,17.4
				c2.5,12.7,6.8,23.1,13,31.3c6.2,8.1,13.2,13.8,21,17.3c9.8,4.3,15.4,6.4,16.8,6.4C922.2,287.6,915.3,288,908,288z M936.1,161.2
				l-0.3-1.6c4.1-6.2,6.1-14.9,6.1-26.1c0-18.7-3-32.6-9-41.7c-3.3-4.8-6.6-8.1-9.7-9.7l3.3-0.1c7.6,0,15.3,2.4,23,7.3
				c10.4,6.5,15.5,17.8,15.5,34c0,5-1.1,10-3.3,15.1c-2.1,5.1-5.7,9.7-10.7,13.6C946.1,155.9,941.1,159,936.1,161.2z"/>
			<path d="M1171.1,245.4l-19.6,42h-2.3L1062.7,103c-3.9-7.6-8.7-11.4-14.4-11.4v-2.3h49.5l72.2,153.5L1171.1,245.4z M1068.9,254.2
				c1.1,8.1,3.2,15,6.6,20.8c3.8,6.7,8.3,10,13.6,10v2.3h-40.8V285c5.3,0,9.9-3.3,13.7-10c3.7-6.7,6-13.1,7-19.4V254.2z
				 M1231.1,112.1l10.7-22.8h45.4v2.3c-5.2,0-9.8,3.3-13.6,10s-5.7,14.8-5.7,24.5v124.4c0,9.7,1.9,17.9,5.7,24.5
				c3.8,6.7,8.3,10,13.6,10v2.3h-75.3V285c5.3,0,9.9-3.3,13.7-10c3.7-6.7,5.6-14.8,5.6-24.5L1231.1,112.1L1231.1,112.1z"/>
		</g>
		<g>
			<path d="M613.5,341.2v-2h6.4v2.6h-0.5L613.5,341.2z M620.8,364.7l5.8,0.6v2h-13v-2l5.8-0.6H620.8z M617.2,352.4
				c0-4.4,0-8.8-0.1-13.1h5.7c-0.1,4.3-0.1,8.7-0.1,13.1v1.5c0,4.7,0,9.1,0.1,13.5H617c0.1-4.3,0.1-8.7,0.1-13.1V352.4z M631,339.3
				l2.5,2.2h-13.6v-2.2H635l0.3,7.4h-3L631,339.3z M629.6,354h-9.7v-2.2h9.7V354z M628.2,352.4l0.6-4.3h2.2v10h-2.2l-0.6-4.5V352.4z
				"/>
			<path d="M638,357.2c0-6.8,4.7-10.7,10.2-10.7c5.4,0,10.2,3.9,10.2,10.7s-4.5,10.7-10.2,10.7C642.4,367.9,638,363.9,638,357.2z
				 M652.8,357.2c0-5.8-1.7-8.7-4.7-8.7c-3.1,0-4.7,2.9-4.7,8.7c0,5.8,1.6,8.6,4.7,8.6C651.2,365.9,652.8,363.1,652.8,357.2z"/>
			<path d="M664.2,358.4v-2.2c0-2.3,0-3.4-0.1-5.1l-3-0.4v-1.6l7.1-2.7l0.7,0.4l0.5,5.2v6.3c0,2.6,0,7,0.1,8.9h-5.3
				C664.1,365.4,664.2,361.1,664.2,358.4z M661.4,365.6l4.3-0.8h2.7l4.3,0.8v1.7h-11.4L661.4,365.6L661.4,365.6z M666.8,352.8h2.8
				l-0.8,0.7c1-4.6,3.8-7,6.3-7c1.5,0,2.9,0.8,3.3,2.3c0,2.1-1,3.3-2.7,3.3c-1.1,0-2-0.5-2.9-1.5l-1.2-1.3l1.9,0.1
				c-2.1,1.2-3.6,3.4-4.3,6.3l-2.4-0.2L666.8,352.8L666.8,352.8z"/>
			<path d="M689.9,366.1l0-4.9h2.8l1,5.3l-2.2-0.9v-1.6c1.7,1.1,3.2,1.7,5.2,1.7c2.8,0,4.3-1,4.3-2.9c0-1.6-1-2.5-3.8-3.4l-2.1-0.7
				c-3.2-1-5.1-3-5.1-6c0-3.5,2.9-6.4,8.1-6.4c2.4,0,4.3,0.6,6.3,1.7l-0.2,4.5h-2.8l-1-4.8l1.9,0.8v1.3c-1.4-1-2.6-1.5-4.3-1.5
				c-2.2,0-3.6,1-3.6,2.6c0,1.5,0.8,2.3,3.7,3.3l1.7,0.5c4.1,1.4,5.7,3.5,5.7,6.4c0,3.8-3.2,6.5-8.9,6.5
				C694.1,367.9,692,367.3,689.9,366.1z"/>
			<path d="M715.6,360.1c0,3.2,1,4.3,2.8,4.3c1.9,0,4-1.4,5.7-3.3h1.3v2.5h-2.5l1.4-0.9c-2.2,3.5-5,5.3-8.2,5.3
				c-3.5,0-5.8-2-5.7-7.6l0.1-11.3l1.1,1.1l-3.9-0.8v-1.6l7.4-0.9l0.5,0.4l-0.2,6L715.6,360.1L715.6,360.1z M723.7,367.7l-0.5-5
				l0.1-13.7l1.1,1.1l-3.8-0.8v-1.6l7.2-1l0.5,0.4l-0.1,6v13.4l-1.9-1.8l4.5,1v1.7L723.7,367.7z"/>
			<path d="M736.4,356.2c0-2.3,0-3.4-0.1-5.1l-3-0.4v-1.6l7-2.7l0.7,0.4l0.3,3.4l0.2,0.4v13.2l-0.1,0.4v3.6c0,2.8,0,5.9,0.1,9.2
				h-5.2c0.1-3.4,0.1-6.4,0.1-9.2V356.2z M744.8,375.4v1.7h-11.3v-1.7l4.4-0.8h2.5L744.8,375.4z M745.6,349.5
				c-1.9,0-3.9,1.6-6.1,3.8l-0.4-0.7c2.4-4.1,5.2-6,8.5-6c4.5,0,8.2,3.8,8.2,10.6c0,6.7-4,10.8-8.9,10.8c-3.2,0-5.6-1.7-7.7-6.1
				l0.4-0.7c2,2.6,3.6,3.8,5.7,3.8c2.9,0,5.1-2.4,5.1-7.6C750.3,352.1,748.4,349.5,745.6,349.5z"/>
			<path d="M761.6,356.2c0-2.3,0-3.4-0.1-5.1l-3-0.4v-1.6l7-2.7l0.7,0.4l0.3,3.4l0.2,0.4v13.2l-0.1,0.4v3.6c0,2.8,0,5.9,0.1,9.2
				h-5.2c0.1-3.4,0.1-6.4,0.1-9.2V356.2z M770,375.4v1.7h-11.3v-1.7l4.4-0.8h2.5L770,375.4z M770.8,349.5c-1.9,0-3.9,1.6-6.1,3.8
				l-0.4-0.7c2.4-4.1,5.2-6,8.5-6c4.5,0,8.2,3.8,8.2,10.6c0,6.7-4,10.8-8.9,10.8c-3.2,0-5.6-1.7-7.7-6.1l0.4-0.7
				c2,2.6,3.6,3.8,5.7,3.8c2.9,0,5.1-2.4,5.1-7.6C775.5,352.1,773.6,349.5,770.8,349.5z"/>
			<path d="M791.2,336.3l0.6,0.4l-0.2,6v15.8c0,3,0,5.9,0.1,8.9h-5.3c0.1-3,0.1-5.9,0.1-8.9v-18.2l-3.1-0.4v-1.6L791.2,336.3z
				 M794.6,365.6v1.7h-11v-1.7l4.4-0.8h2L794.6,365.6z"/>
			<path d="M799.7,367.3c0.1-1.9,0.1-6.3,0.1-8.9v-2c0-2.3,0-3.6-0.1-5.3l-3-0.4v-1.6l7.6-2.7l0.7,0.4l-0.1,5.9v5.6
				c0,2.6,0,7,0.1,8.9L799.7,367.3L799.7,367.3z M807.5,365.6v1.7H797v-1.7l4.3-0.8h2L807.5,365.6z M799.1,339.5c0-1.8,1.4-3,3.2-3
				s3.2,1.2,3.2,3c0,1.8-1.4,3-3.2,3S799.1,341.3,799.1,339.5z"/>
			<path d="M828.7,355c0,0.9-0.1,1.7-0.3,2.3h-16.1v-2h9c2,0,2.5-0.9,2.5-2.4c0-2.6-1.7-4.4-3.8-4.4c-2.2,0-4.6,2.1-4.6,8.2
				c0,5.3,2.6,7.9,6.3,7.9c2.5,0,4.1-1.1,5.5-2.6l1.2,1.1c-1.6,3.2-4.5,4.9-8.5,4.9c-5.9,0-10-4-10-10.6c0-6.8,4.9-10.8,10.3-10.8
				C825.4,346.5,828.7,349.9,828.7,355z"/>
			<path d="M832.1,366.1l0-4.9h2.8l1,5.3l-2.2-0.9v-1.6c1.7,1.1,3.2,1.7,5.2,1.7c2.8,0,4.3-1,4.3-2.9c0-1.6-1-2.5-3.8-3.4l-2.1-0.7
				c-3.2-1-5.1-3-5.1-6c0-3.5,2.9-6.4,8.1-6.4c2.4,0,4.3,0.6,6.3,1.7l-0.2,4.5h-2.8l-1-4.8l1.9,0.8v1.3c-1.4-1-2.6-1.5-4.3-1.5
				c-2.2,0-3.6,1-3.6,2.6c0,1.5,0.8,2.3,3.7,3.3l1.7,0.5c4.1,1.4,5.7,3.5,5.7,6.4c0,3.8-3.2,6.5-8.9,6.5
				C836.4,367.9,834.3,367.3,832.1,366.1z"/>
			<path d="M867.8,355.9c1.8-0.6,4.6-1.3,6.7-1.8v1.7c-2,0.4-4.3,1.2-5.6,1.7c-2.8,1.1-3.7,2.7-3.7,4.3c0,2.2,1.3,3.1,3,3.1
				c1.1,0,1.9-0.4,3.9-1.9l1.3-1l0.5,0.8l-1.5,1.6c-2.3,2.3-3.7,3.6-6.5,3.6c-3.2,0-5.6-1.8-5.6-5.3
				C860.2,359.9,861.7,357.9,867.8,355.9z M871.8,363.6v-10.1c0-3.9-1-5-3.7-5c-1,0-2.2,0.1-3.9,0.7l2.3-1.5l-0.7,3.3
				c-0.2,2-1.2,2.9-2.6,2.9c-1.3,0-2.2-0.7-2.4-1.9c0.5-3.4,3.8-5.6,9-5.6c4.9,0,7,2.1,7,7.6v9.2c0,1.4,0.5,1.9,1.2,1.9
				c0.6,0,1-0.3,1.5-0.9l1,0.8c-1,2-2.3,2.7-4.4,2.7C873.6,367.8,872,366.2,871.8,363.6z"/>
			<path d="M884.8,367.3c0.1-1.9,0.1-6.3,0.1-8.9v-2.2c0-2.3,0-3.4-0.1-5.1l-3-0.4v-1.6l7.1-2.7l0.7,0.4l0.5,4.8v6.7
				c0,2.6,0,7,0.1,8.9L884.8,367.3L884.8,367.3z M892.5,365.6v1.7h-10.4v-1.7l4.3-0.8h2.1L892.5,365.6z M902.8,354v4.4
				c0,2.7,0,7,0.1,8.9h-5.3c0.1-1.9,0.1-6.2,0.1-8.9v-4c0-3.3-0.8-4.4-3-4.4c-1.8,0-3.7,1-5.7,3h-1.2v-2.3h2.5l-1.7,1
				c2.5-3.5,5.4-5.2,8.4-5.2C900.7,346.5,902.8,348.8,902.8,354z M901.2,364.7l4.2,0.8v1.7h-10.5v-1.7l4.2-0.8H901.2z"/>
			<path d="M918.6,364.9c2.1,0,3.5-1.2,5.2-3.5l0.4,0.9c-1.9,3.7-4.1,5.6-7.7,5.6c-5,0-8.5-4-8.5-10.5c0-6.7,4.2-10.9,9.2-10.9
				c3,0,5,1.5,7,5l-0.4,1c-2-2.2-3.5-3-5.2-3c-2.9,0-5.2,2.5-5.2,7.8C913.5,362.4,915.6,364.9,918.6,364.9z M930.2,365.6v1.7
				l-7.4,0.5l-0.5-4v-13.2l0.2-0.5v-9.7l-3.3-0.4v-1.6l7.7-1.9l0.6,0.4l-0.2,6v24.7l-1.8-2.6L930.2,365.6z"/>
			<path d="M946.7,341.9l-5.7-0.6v-2h12.3v2l-5.4,0.6H946.7z M961.1,339.3h2.9l7,22.9l-1.8,2.3l7-25.1h2.4l-8,28.2h-2.9l-7.4-22.8
				l1.6-0.7l-7.3,23.5h-2.9l-8.3-28.2h5.8l6,22.9l-1.9,2.3L961.1,339.3z M961.9,341.9l-5.3-0.6v-2h12.1v2l-5.2,0.6H961.9z
				 M976.2,341.9l-4.2-0.6v-2h9.3v2l-4.1,0.6H976.2z"/>
			<path d="M983.1,357.2c0-6.8,4.7-10.7,10.2-10.7c5.4,0,10.2,3.9,10.2,10.7s-4.5,10.7-10.2,10.7
				C987.6,367.9,983.1,363.9,983.1,357.2z M998,357.2c0-5.8-1.7-8.7-4.7-8.7c-3.1,0-4.7,2.9-4.7,8.7c0,5.8,1.6,8.6,4.7,8.6
				C996.3,365.9,998,363.1,998,357.2z"/>
			<path d="M1006.7,357.2c0-6.8,4.7-10.7,10.2-10.7c5.4,0,10.2,3.9,10.2,10.7s-4.5,10.7-10.2,10.7
				C1011.1,367.9,1006.7,363.9,1006.7,357.2z M1021.6,357.2c0-5.8-1.7-8.7-4.7-8.7c-3.1,0-4.7,2.9-4.7,8.7c0,5.8,1.6,8.6,4.7,8.6
				C1019.9,365.9,1021.6,363.1,1021.6,357.2z"/>
			<path d="M1040.8,364.9c2.1,0,3.5-1.2,5.2-3.5l0.4,0.9c-1.9,3.7-4.1,5.6-7.7,5.6c-5,0-8.5-4-8.5-10.5c0-6.7,4.2-10.9,9.2-10.9
				c3.1,0,5,1.5,7,5l-0.4,1c-2.1-2.2-3.5-3-5.2-3c-2.9,0-5.2,2.5-5.2,7.8C1035.6,362.4,1037.8,364.9,1040.8,364.9z M1052.4,365.6
				v1.7l-7.4,0.5l-0.5-4v-13.2l0.2-0.5v-9.7l-3.3-0.4v-1.6l7.7-1.9l0.6,0.4l-0.2,6v24.7l-1.8-2.6L1052.4,365.6z"/>
			<path d="M1073.3,355c0,0.9-0.1,1.7-0.3,2.3H1057v-2h9c2,0,2.5-0.9,2.5-2.4c0-2.6-1.7-4.4-3.8-4.4c-2.2,0-4.6,2.1-4.6,8.2
				c0,5.3,2.6,7.9,6.3,7.9c2.5,0,4.1-1.1,5.5-2.6l1.2,1.1c-1.6,3.2-4.5,4.9-8.5,4.9c-5.9,0-9.9-4-9.9-10.6c0-6.8,4.9-10.8,10.3-10.8
				C1070,346.5,1073.3,349.9,1073.3,355z"/>
			<path d="M1079.1,367.3c0.1-1.9,0.1-6.3,0.1-8.9v-2.2c0-2.3,0-3.4-0.1-5.1l-3-0.4v-1.6l7.1-2.7l0.7,0.4l0.4,4.8v6.7
				c0,2.6,0,7,0.1,8.9L1079.1,367.3L1079.1,367.3z M1086.9,365.6v1.7h-10.4v-1.7l4.3-0.8h2.1L1086.9,365.6z M1097.1,354v4.4
				c0,2.7,0,7,0.1,8.9h-5.3c0.1-1.9,0.1-6.2,0.1-8.9v-4c0-3.3-0.8-4.4-2.9-4.4c-1.8,0-3.7,1-5.7,3h-1.2v-2.3h2.5l-1.7,1
				c2.5-3.5,5.4-5.2,8.4-5.2C1095,346.5,1097.1,348.8,1097.1,354z M1095.5,364.7l4.2,0.8v1.7h-10.5v-1.7l4.2-0.8H1095.5z"/>
			<path d="M1114.4,367.3c0.1-1.9,0.1-6.3,0.1-8.9v-2c0-2.3,0-3.6-0.1-5.3l-3-0.4v-1.6l7.6-2.7l0.7,0.4l-0.1,5.9v5.6
				c0,2.6,0,7,0.1,8.9L1114.4,367.3L1114.4,367.3z M1122.1,365.6v1.7h-10.5v-1.7l4.3-0.8h2L1122.1,365.6z M1113.8,339.5
				c0-1.8,1.4-3,3.2-3s3.2,1.2,3.2,3c0,1.8-1.4,3-3.2,3S1113.8,341.3,1113.8,339.5z"/>
			<path d="M1127.4,367.3c0.1-1.9,0.1-6.3,0.1-8.9v-2.2c0-2.3,0-3.4-0.1-5.1l-3-0.4v-1.6l7.1-2.7l0.7,0.4l0.4,4.8v6.7
				c0,2.6,0,7,0.1,8.9L1127.4,367.3L1127.4,367.3z M1135.2,365.6v1.7h-10.4v-1.7l4.3-0.8h2.1L1135.2,365.6z M1145.4,354v4.4
				c0,2.7,0,7,0.1,8.9h-5.3c0.1-1.9,0.1-6.2,0.1-8.9v-4c0-3.3-0.8-4.4-2.9-4.4c-1.8,0-3.7,1-5.7,3h-1.2v-2.3h2.5l-1.7,1
				c2.5-3.5,5.4-5.2,8.4-5.2C1143.3,346.5,1145.4,348.8,1145.4,354z M1143.8,364.7l4.2,0.8v1.7h-10.5v-1.7l4.2-0.8H1143.8z"/>
			<path d="M1161.3,364.9c2.1,0,3.5-1.2,5.2-3.5l0.4,0.9c-1.9,3.7-4.1,5.6-7.7,5.6c-5,0-8.5-4-8.5-10.5c0-6.7,4.2-10.9,9.2-10.9
				c3.1,0,5,1.5,7,5l-0.4,1c-2.1-2.2-3.5-3-5.2-3c-2.9,0-5.2,2.5-5.2,7.8C1156.1,362.4,1158.3,364.9,1161.3,364.9z M1172.8,365.6
				v1.7l-7.4,0.5l-0.5-4v-13.2l0.2-0.5v-9.7l-3.3-0.4v-1.6l7.7-1.9l0.6,0.4l-0.2,6v24.7l-1.8-2.6L1172.8,365.6z"/>
			<path d="M1182.3,360.1c0,3.2,1,4.3,2.8,4.3c1.9,0,4-1.4,5.7-3.3h1.3v2.5h-2.5l1.4-0.9c-2.2,3.5-5.1,5.3-8.2,5.3
				c-3.5,0-5.8-2-5.7-7.6l0.1-11.3l1.1,1.1l-3.9-0.8v-1.6l7.4-0.9l0.6,0.4l-0.2,6L1182.3,360.1L1182.3,360.1z M1190.4,367.7l-0.5-5
				l0.1-13.7l1.1,1.1l-3.8-0.8v-1.6l7.2-1l0.6,0.4l-0.1,6v13.4l-1.9-1.8l4.5,1v1.7L1190.4,367.7z"/>
			<path d="M1200.5,366.1l0-4.9h2.8l1.1,5.3l-2.2-0.9v-1.6c1.7,1.1,3.2,1.7,5.2,1.7c2.8,0,4.3-1,4.3-2.9c0-1.6-1-2.5-3.8-3.4
				l-2.1-0.7c-3.2-1-5.1-3-5.1-6c0-3.5,2.9-6.4,8.1-6.4c2.4,0,4.3,0.6,6.3,1.7l-0.2,4.5h-2.8l-1-4.8l1.9,0.8v1.3
				c-1.4-1-2.6-1.5-4.3-1.5c-2.2,0-3.6,1-3.6,2.6c0,1.5,0.8,2.3,3.7,3.3l1.7,0.5c4.1,1.4,5.7,3.5,5.7,6.4c0,3.8-3.2,6.5-8.9,6.5
				C1204.8,367.9,1202.7,367.3,1200.5,366.1z"/>
			<path d="M1228.5,365.1c0.8,0,1.6-0.3,2.6-1.1l1,1.1c-1.1,1.8-2.9,2.8-5.6,2.8c-3.4,0-5.4-1.6-5.4-5.3c0-1.2,0-2.3,0-3.9v-9h-3.1
				v-2.2l5.1-0.7l-2.1,1.5l2-7.1h3.4l-0.2,7.5v13.4C1226.2,364.2,1227.2,365.1,1228.5,365.1z M1231.4,347.1v2.6h-7.7v-2.6H1231.4z"
				/>
			<path d="M1236.2,358.4v-2.2c0-2.3,0-3.4-0.1-5.1l-3-0.4v-1.6l7.1-2.7l0.7,0.4l0.4,5.2v6.3c0,2.6,0,7,0.1,8.9h-5.3
				C1236.2,365.4,1236.2,361.1,1236.2,358.4z M1233.5,365.6l4.3-0.8h2.7l4.3,0.8v1.7h-11.4V365.6z M1238.9,352.8h2.8l-0.8,0.7
				c1-4.6,3.8-7,6.3-7c1.5,0,2.9,0.8,3.3,2.3c-0.1,2.1-1,3.3-2.7,3.3c-1.1,0-2-0.5-2.9-1.5l-1.2-1.3l1.9,0.1
				c-2.1,1.2-3.6,3.4-4.3,6.3l-2.4-0.2V352.8z"/>
			<path d="M1254.8,367.3c0.1-1.9,0.1-6.3,0.1-8.9v-2c0-2.3,0-3.6-0.1-5.3l-3-0.4v-1.6l7.6-2.7l0.7,0.4l-0.1,5.9v5.6
				c0,2.6,0,7,0.1,8.9L1254.8,367.3L1254.8,367.3z M1262.6,365.6v1.7h-10.5v-1.7l4.3-0.8h2L1262.6,365.6z M1254.2,339.5
				c0-1.8,1.4-3,3.2-3s3.2,1.2,3.2,3c0,1.8-1.4,3-3.2,3S1254.2,341.3,1254.2,339.5z"/>
			<path d="M1283.9,355c0,0.9-0.1,1.7-0.3,2.3h-16.1v-2h9c2,0,2.5-0.9,2.5-2.4c0-2.6-1.7-4.4-3.8-4.4c-2.2,0-4.6,2.1-4.6,8.2
				c0,5.3,2.6,7.9,6.3,7.9c2.5,0,4.1-1.1,5.5-2.6l1.2,1.1c-1.6,3.2-4.5,4.9-8.5,4.9c-5.9,0-9.9-4-9.9-10.6c0-6.8,4.9-10.8,10.3-10.8
				C1280.6,346.5,1283.9,349.9,1283.9,355z"/>
			<path d="M1287.2,366.1l0-4.9h2.8l1.1,5.3l-2.2-0.9v-1.6c1.7,1.1,3.2,1.7,5.2,1.7c2.8,0,4.3-1,4.3-2.9c0-1.6-1-2.5-3.8-3.4
				l-2.1-0.7c-3.2-1-5.1-3-5.1-6c0-3.5,2.9-6.4,8.1-6.4c2.4,0,4.3,0.6,6.3,1.7l-0.2,4.5h-2.8l-1-4.8l1.9,0.8v1.3
				c-1.4-1-2.6-1.5-4.3-1.5c-2.2,0-3.6,1-3.6,2.6c0,1.5,0.8,2.3,3.7,3.3l1.7,0.5c4.1,1.4,5.7,3.5,5.7,6.4c0,3.8-3.2,6.5-8.9,6.5
				C1291.5,367.9,1289.4,367.3,1287.2,366.1z"/>
		</g>
	</g>
	<g>
		<path class="st0" d="M210.6,58.4v2.2l-0.3,0.2c0,0,0,0,0,0L210.6,58.4z"/>
		<path class="st0" d="M564.5,397.8c0-5.1-2.6-8.1-6.9-8.1s-6.8,3-6.8,8.1c0,6.2,0.1,12.3,0,18.5c-0.1,5.1-2.6,7.5-7.8,7.6
			c-4.3,0.1-8.6,0.2-12.9-0.1c-1.2-0.1-2.9-1.1-3.5-2.2c-11.4-20-22.4-40.3-34.1-60.1c-21-35.5-35.6-73-37.7-114.7
			c-1.8-36.6,2.7-72,18.1-105.6c0.9-1.9,1.8-3.9,2.3-6c0.8-3.6-0.8-6.2-4.1-7.6c-3.1-1.2-6-0.4-8,2.4c-0.7,1-1.2,2.2-1.8,3.4
			c-11.7,25.4-18.2,52-20.1,79.9c-3.1,46.7,5.1,91.1,27.1,132.4c11.8,22.2,24.9,43.8,37.4,65.7c2.2,3.9,4.2,8,6.4,12.2h-106
			c-3.7-13.5-6.8-26.7-10.9-39.7c-11.6-37.1-26.1-73.4-30.6-112.4c-0.2-2-2.8-4.7-4.8-5.3c-2-0.6-4.7,0.9-6.9,1.8
			c-0.9,0.4-1.5,1.7-2.2,2.5c-21.5,26.7-38.5,56.1-52.1,87.6c-3.4,7.9-6.4,15.9-9.4,24c-1.5,3.9,0.3,7.2,4.1,8.6
			c3.5,1.3,6.8-0.1,8.6-3.6c0.6-1.2,0.9-2.4,1.4-3.6c11.8-32,27.3-62,47.2-89.8c0.9-1.2,1.8-2.3,2.8-3.6c2.5,10.5,4.3,20.5,7.3,30.2
			c7.6,24.9,15.8,49.6,23.5,74.5c2.9,9.5,5.2,19.1,7.9,29.2c-9.2,0-17.4-0.1-25.5,0.1c-2.7,0-2.9-1.4-3.3-3.4
			c-3.8-19.4-7.8-38.7-11.6-58.1c-0.7-3.7-2.1-6.7-6.1-7.2c-4-0.6-6.2,2-8,5.2c-7,12.7-12.7,26-16.2,40.1
			c-1.9,7.6-3.1,15.4-4.6,23.3c-10.3,0-20.8,0-31.2,0c-7.7,0-9.7-2-9.7-9.6c0-28.7,0.1-57.3-0.1-86c0-4.8,1-9,3.1-13.1
			c8-16,18.3-30.5,29.9-44c22-25.5,44.5-50.5,66.9-75.7c5.9-6.6,11.7-13.3,17.6-20c0.3,0.6,0.5,0.8,0.5,1.1
			c-0.2,1.1-0.5,2.2-0.7,3.3c-7.5,30.4-8.6,61.1-3.9,92.1c5,32.6,15.6,63.3,30.6,92.5c7.6,14.8,16.3,28.9,24.7,43.2
			c2.5,4.3,6.2,5.1,9.8,2.8c3.6-2.2,4.2-5.9,1.8-10.1c-1.1-1.8-2.3-3.6-3.4-5.5c-23.6-38-42.4-77.9-49.6-122.5
			c-8.6-53.4,0.6-103.5,29-149.6c11.8-19.1,19.6-39.3,21.3-61.8c0.5-7.4,1.1-14.7,1.6-22h58.5c-5.1,9.8-9.8,19.2-14.9,28.2
			c-6.6,11.9-13.7,23.5-20.5,35.3c-2.8,4.8-2.2,8.5,1.7,10.8s7.3,1,10.2-3.9c0.4-0.6,0.7-1.2,1.1-1.9c12.8-22.7,25.6-45.3,38.3-68
			c-0.6-0.7-0.2-0.8,0.2-0.8c4.2,0,8.3,0,12.5,0c6.9,0,9.1,2.2,9.1,8.9c0,13.5,0.1,26.9-0.1,40.4c0,2.1-0.9,4.5-2,6.2
			c-7,10.3-14.5,20.2-21.3,30.7c-29.5,45.5-37.8,95.1-27.3,148.1c7.7,38.5,29.2,69.9,52.4,100.3c2.4,3.2,7.1,3.6,9.4,0.6
			c1.6-2,2.5-5.1,2.5-7.8c0.1-106.2,0.1-212.4,0.1-318.5c0-14.2-8.5-22.7-22.8-22.7c-66,0-132,0-198,0h-59.1
			c-14.5,0-22.8,8.5-22.8,23v76.5c0,8.4,3.9,11.3,11.7,8.2c7-2.8,13.9-6,20.6-9.5c27-14.2,43.5-36.1,48-66.6
			c0.8-5.9,1.4-11.8,2.1-17.5h96.3C440,56.3,439,73,433.4,89c-5.5,15.7-14.9,29.3-24.1,42.9c-19.5,28.5-43.2,53.4-66.2,79
			c-23.1,25.6-47,50.7-66.1,79.6c-0.2,0.3-0.6,0.3-1.1,0.6c-0.1-0.6-0.2-1-0.2-1.4c0-26.4-0.1-52.7,0.1-79.1c0-1.6,1.5-3.6,2.8-4.7
			c13.3-10.2,26.9-20,39.9-30.5c21.8-17.6,42-36.9,57.4-60.6c10.5-16.2,17.9-33.6,19.3-53.1c0.4-5.6-1.8-8.8-6-9.1
			c-4.4-0.4-7.1,2.7-7.7,8.3c-0.4,3.4-0.8,6.8-1.5,10.2c-4.7,21.6-16.4,39.5-30.5,55.9c-18.8,21.9-41.2,39.8-64.2,56.9
			c-2.9,2.2-5.9,4.3-9.5,6.9v-5c0-9.6,0-19.2,0-28.8c0-3.7-1.2-6.3-3.5-7.4c-0.3-0.3-0.7-0.6-1.1-0.8l-57-32.9l5.6-47.2l-0.9,0.2
			v-8.6l0.2-0.3c0.4-0.5,0.7-1.1,1.1-1.7c-0.4,0.2-0.8,0.3-1.2,0.5c-1.6,2.2-2.9,4.4-3.6,6.2l-1.9,4.9l-0.8-5.2
			c-0.2-1.2-0.3-2.5-0.3-3.7l-0.3,0.2v2.3l-1.5-0.2c-0.1,0-0.3,0-0.4,0l-5.6,47l-43.4-25c-3.4-2-7.8-0.8-9.8,2.6
			c-0.6,1.1-1,2.4-1,3.6c0,2.5,1.3,4.9,3.6,6.2l16,9.2l-28.6,14.5l0,0c1.4,0.9,2.6,2.2,3.4,3.6l0.1,0.2l-4.5,1.5
			c-0.7,0.2-1.4,0.4-2.1,0.6c-1,0.3-2,0.7-3.1,1.1c0,0,0,0,0,0l0.2,0.3c2.6-0.8,4.8-1.4,6.8-1.8l0.3-0.1c1.6-0.5,1.8-0.4,2.3-0.5
			c0.6-0.2,0.3,0,0.9,0c0.8-0.1,1.4,0,2.1,0.2c0.1,0.1,0.7,0.4,0.9,0.3c0,0,19.6-9.9,29.9-15.1l83.6,48.2c0,4.5,0,9,0,13.4
			c0,80.7,0,161.4,0,242c0,13,8.6,22.1,21.1,22.1c86.8,0,173.7,0,260.5,0c12,0,20.8-9,21-21C564.6,410.5,564.5,404.1,564.5,397.8z
			 M550.4,347c-53.6-67.4-55.8-160.4,0-231.2V347z M275.6,116.3v-3.9c0-21.5,0-42.9,0-64.4c0-7.1,2.1-9.2,9.2-9.2
			c13.7,0,27.5,0,41.2,0h3.8C329.5,77.7,311.6,103,275.6,116.3z M329.7,423.8c3.7-13.6,7.1-26.3,10.6-39c0.5,0.1,1.1,0.2,1.6,0.2
			c2.6,12.8,5.1,25.7,7.8,38.7H329.7z"/>
		<g>
			<path class="st1" d="M149.9,128.9C149.9,128.9,149.9,128.9,149.9,128.9c-4.2,9.4-11.6,16.9-21.3,20.3c-11,4-22.8,2.1-32.9-4
				c3.8-11.1,11.8-20.1,22.8-24c5.9-2.2,12.2-2.6,18.2-1.6l0,0c0.4,0.3,0.7,0.7,1.1,1l0.1,0c0.1,0.1,0.2,0.1,0.2,0.2
				c0.6,0.5,1.2,1,1.8,1.4c0.9,0.6,1.9,1.2,2.8,1.8c-0.8,0.2-1.6,0.4-2.4,0.6c-0.4,0.1-0.7,0.2-1.1,0.3c-0.1,0-0.2,0.1-0.3,0.1
				c-1.4,0.4-2.8,1-4.2,1.6c-0.1,0-0.2,0.1-0.2,0.1c-6.6,2.8-13.9,7-20.3,12.2c9.1-4,16.2-6.7,21.9-8.5c0,0,0.1,0,0.1,0
				c2.6-0.8,4.9-1.5,7-2c0.7-0.2,1.4-0.3,2.1-0.5c0.3-0.1,0.6-0.1,0.9-0.2l0.6,0.2L149.9,128.9z"/>
			<path class="st1" d="M149.9,128.9C149.9,128.9,149.9,128.9,149.9,128.9c-4.2,9.4-11.6,16.9-21.3,20.3c-11,4-22.8,2.1-32.9-4
				c3.8-11.1,11.8-20.1,22.8-24c5.9-2.2,12.2-2.6,18.2-1.6l0,0c0.4,0.3,0.7,0.7,1.1,1l0.1,0c0.1,0.1,0.2,0.1,0.2,0.2
				c0.6,0.5,1.2,1,1.8,1.4c0.9,0.6,1.9,1.2,2.8,1.8c-0.8,0.2-1.6,0.4-2.4,0.6c-0.4,0.1-0.7,0.2-1.1,0.3c-0.1,0-0.2,0.1-0.3,0.1
				c-1.4,0.4-2.8,1-4.2,1.6c-0.1,0-0.2,0.1-0.2,0.1c-6.6,2.8-13.9,7-20.3,12.2c9.1-4,16.2-6.7,21.9-8.5c0,0,0.1,0,0.1,0
				c2.6-0.8,4.9-1.5,7-2c0.7-0.2,1.4-0.3,2.1-0.5c0.3-0.1,0.6-0.1,0.9-0.2l0.6,0.2L149.9,128.9z"/>
		</g>
		<path class="st1" d="M213.8,56.5c0,0.1,0,0.2,0,0.4l-0.1-0.1C213.7,56.7,213.7,56.6,213.8,56.5z"/>
		<path class="st1" d="M210.6,58.4v2.2l-0.3,0.2c0,0,0,0,0,0L210.6,58.4z"/>
		<path class="st1" d="M215.6,45.3c-0.1,0.1-0.1,0.2-0.1,0.2c-0.2,0.5-0.5,1.1-0.8,1.7l0,0.1c-0.6,1.3-1,2.7-1.4,4.1
			c-0.1,0.5-0.2,1-0.3,1.5c-0.2-0.3-0.4-0.6-0.5-0.8c-0.4-0.6-0.8-1.2-1.2-1.8c-5-7-12.9-14.6-21.9-20.6
			c11.9,13.5,18.1,22.5,21.4,28.4v0.5l-0.3,2.4c0,0,0,0,0,0l0.3-0.2v1.5c-10.8-1.2-20.5-6.2-27.1-14.8c-7.4-9.7-9.4-22.1-6.4-34.1
			c12.4,0.3,23.8,5.4,31.3,15.1C212.2,33.4,214.6,39.2,215.6,45.3z"/>
		<path class="st1" d="M210.6,58.4v2.2l-0.3,0.2c0,0,0,0,0,0L210.6,58.4z"/>
		<path class="st1" d="M213.8,56.5c0,0.1,0,0.2,0,0.4l-0.1-0.1C213.7,56.7,213.7,56.6,213.8,56.5z"/>
		<path class="st1" d="M239,56.1c-4.7,6.1-11.4,9.9-18.9,11.2v-6.6c0.2-0.3,0.4-0.5,0.6-0.8c0,0,0,0,0,0c2.9-4.3,7.3-10,13.9-17.5
			c-5.2,3.5-9.9,7.6-13.6,11.7c-0.3,0.3-0.6,0.7-0.9,1c-0.8,0.9-1.5,1.8-2.1,2.7c-0.6,0.8-1.2,1.6-1.7,2.4c-1,1.6-1.8,3.1-2.3,4.5
			c-0.2-1.5-0.3-3-0.4-4.5c0-0.1,0-0.3,0-0.4c0-0.3,0-0.6,0-0.9c0-0.5,0-1,0.1-1.6c0-0.1,0-0.1,0-0.2v0c0-0.1,0-0.2,0-0.4
			c0,0,0,0,0,0c0,0,0-0.1,0-0.1c0.1-0.5,0.1-1.1,0.2-1.6c0.2-1.3,0.5-2.5,0.8-3.8c0.3-1,0.6-2.1,1.1-3.1c0,0,0,0,0-0.1
			c0.2-0.5,0.5-1.1,0.7-1.6c0.1-0.2,0.2-0.4,0.3-0.7c0.8-1.5,1.7-2.9,2.7-4.2c5.8-7.6,14.7-11.5,24.4-11.8
			C246.3,38.9,244.8,48.5,239,56.1z"/>
	</g>
</g>
</svg>
